<?xml version="1.0" encoding="UTF-8" standalone="no"?>
<svg
   xmlns:dc="http://purl.org/dc/elements/1.1/"
   xmlns:cc="http://creativecommons.org/ns#"
   xmlns:rdf="http://www.w3.org/1999/02/22-rdf-syntax-ns#"
   xmlns:svg="http://www.w3.org/2000/svg"
   xmlns="http://www.w3.org/2000/svg"
   xmlns:sodipodi="http://sodipodi.sourceforge.net/DTD/sodipodi-0.dtd"
   xmlns:inkscape="http://www.inkscape.org/namespaces/inkscape"
   version="1.1"
   id="svg10"
   xml:space="preserve"
   width="793.70074"
   height="1122.5197"
   viewBox="0 0 793.70074 1122.5197"
   sodipodi:docname="papelesajuste_v5CJ.svg"
   inkscape:version="1.0.1 (3bc2e813f5, 2020-09-07)"><metadata
     id="metadata16"><rdf:RDF><cc:Work
         rdf:about=""><dc:format>image/svg+xml</dc:format><dc:type
           rdf:resource="http://purl.org/dc/dcmitype/StillImage" /><dc:title></dc:title></cc:Work></rdf:RDF></metadata><defs
     id="defs14" /><sodipodi:namedview
     pagecolor="#ffffff"
     bordercolor="#666666"
     borderopacity="1"
     objecttolerance="10"
     gridtolerance="10"
     guidetolerance="10"
     inkscape:pageopacity="0"
     inkscape:pageshadow="2"
     inkscape:window-width="1920"
     inkscape:window-height="956"
     id="namedview12"
     showgrid="false"
     inkscape:zoom="0.96379014"
     inkscape:cx="-42.69487"
     inkscape:cy="168.71565"
     inkscape:window-x="0"
     inkscape:window-y="27"
     inkscape:window-maximized="1"
     inkscape:current-layer="g18" /><g
     id="g18"
     inkscape:groupmode="layer"
     inkscape:label="papelesajuste_v5"
     transform="matrix(1.3333333,0,0,1.3333333,0,3.3396326e-5)"><g
       id="g22"><path
         d="M 24.543,54.496 V 92.5 h 23.98 l 0.004,30.453 h -4.859 v 4.774 h 0.422 c 0.812,-2.012 4.515,-3.004 8.824,-3.004 4.313,0 8.016,0.992 8.828,3.004 h 0.281 v -4.774 H 57.301 L 57.297,92.5 h 22.48 V 54.496 Z"
         style="fill:none;stroke:#000000;stroke-width:0.425197;stroke-linecap:round;stroke-linejoin:round;stroke-miterlimit:4;stroke-dasharray:none;stroke-opacity:1"
         id="path24" /></g><g
       id="g26"><path
         d="m 28.965,131.656 h 55.238 v 38 H 28.965 Z"
         style="fill:none;stroke:#000000;stroke-width:0.566929;stroke-linecap:round;stroke-linejoin:round;stroke-miterlimit:4;stroke-dasharray:none;stroke-opacity:1"
         id="path28" /></g><g
       id="g30"><path
         d="M 83.906,54.086 V 67.07 h 5.887 v 15.25 c -3.645,0.914 -6.539,3.711 -6.543,5.848 0.008,2.141 3.469,4.934 7.109,5.848 l 0.004,60.714 h 6.219 V 94.117 c 3.871,-0.863 7.523,-3.722 7.531,-5.949 -0.004,-2.227 -3.09,-5.086 -6.965,-5.949 V 67.07 h 5.864 V 54.086 Z"
         style="fill:none;stroke:#000000;stroke-width:0.425197;stroke-linecap:round;stroke-linejoin:round;stroke-miterlimit:4;stroke-dasharray:none;stroke-opacity:1"
         id="path32" /></g><g
       id="g34"><path
         d="m 72.113,97.312 v 2.149 c -3.66,1.422 -6.258,3.519 -6.258,7.769 v 19.926 H 85.277 V 107.23 c 0,-4.25 -2.593,-6.351 -6.254,-7.769 v -2.149 z"
         style="fill:none;stroke:#000000;stroke-width:0.420695;stroke-linecap:butt;stroke-linejoin:miter;stroke-miterlimit:4;stroke-dasharray:none;stroke-opacity:1"
         id="path36" /></g><g
       id="g72"
       transform="translate(87)"><g
         id="g58"><path
           d="M 24.543,54.496 V 92.5 h 23.98 l 0.004,30.453 h -4.859 v 4.774 h 0.422 c 0.812,-2.012 4.515,-3.004 8.824,-3.004 4.313,0 8.016,0.992 8.828,3.004 h 0.281 v -4.774 H 57.301 L 57.297,92.5 h 22.48 V 54.496 Z"
           style="fill:none;stroke:#000000;stroke-width:0.425197;stroke-linecap:round;stroke-linejoin:round;stroke-miterlimit:4;stroke-dasharray:none;stroke-opacity:1"
           id="path56" /></g><g
         id="g62"><path
           d="m 28.965,131.656 h 55.238 v 38 H 28.965 Z"
           style="fill:none;stroke:#000000;stroke-width:0.566929;stroke-linecap:round;stroke-linejoin:round;stroke-miterlimit:4;stroke-dasharray:none;stroke-opacity:1"
           id="path60" /></g><g
         id="g66"><path
           d="M 83.906,54.086 V 67.07 h 5.887 v 15.25 c -3.645,0.914 -6.539,3.711 -6.543,5.848 0.008,2.141 3.469,4.934 7.109,5.848 l 0.004,60.714 h 6.219 V 94.117 c 3.871,-0.863 7.523,-3.722 7.531,-5.949 -0.004,-2.227 -3.09,-5.086 -6.965,-5.949 V 67.07 h 5.864 V 54.086 Z"
           style="fill:none;stroke:#000000;stroke-width:0.425197;stroke-linecap:round;stroke-linejoin:round;stroke-miterlimit:4;stroke-dasharray:none;stroke-opacity:1"
           id="path64" /></g><g
         id="g70"><path
           d="m 72.113,97.312 v 2.149 c -3.66,1.422 -6.258,3.519 -6.258,7.769 v 19.926 H 85.277 V 107.23 c 0,-4.25 -2.593,-6.351 -6.254,-7.769 v -2.149 z"
           style="fill:none;stroke:#000000;stroke-width:0.420695;stroke-linecap:butt;stroke-linejoin:miter;stroke-miterlimit:4;stroke-dasharray:none;stroke-opacity:1"
           id="path68" /></g></g><g
       id="g90"
       transform="translate(172.5)"><g
         id="g76"><path
           d="M 24.543,54.496 V 92.5 h 23.98 l 0.004,30.453 h -4.859 v 4.774 h 0.422 c 0.812,-2.012 4.515,-3.004 8.824,-3.004 4.313,0 8.016,0.992 8.828,3.004 h 0.281 v -4.774 H 57.301 L 57.297,92.5 h 22.48 V 54.496 Z"
           style="fill:none;stroke:#000000;stroke-width:0.425197;stroke-linecap:round;stroke-linejoin:round;stroke-miterlimit:4;stroke-dasharray:none;stroke-opacity:1"
           id="path74" /></g><g
         id="g80"><path
           d="m 28.965,131.656 h 55.238 v 38 H 28.965 Z"
           style="fill:none;stroke:#000000;stroke-width:0.566929;stroke-linecap:round;stroke-linejoin:round;stroke-miterlimit:4;stroke-dasharray:none;stroke-opacity:1"
           id="path78" /></g><g
         id="g84"><path
           d="M 83.906,54.086 V 67.07 h 5.887 v 15.25 c -3.645,0.914 -6.539,3.711 -6.543,5.848 0.008,2.141 3.469,4.934 7.109,5.848 l 0.004,60.714 h 6.219 V 94.117 c 3.871,-0.863 7.523,-3.722 7.531,-5.949 -0.004,-2.227 -3.09,-5.086 -6.965,-5.949 V 67.07 h 5.864 V 54.086 Z"
           style="fill:none;stroke:#000000;stroke-width:0.425197;stroke-linecap:round;stroke-linejoin:round;stroke-miterlimit:4;stroke-dasharray:none;stroke-opacity:1"
           id="path82" /></g><g
         id="g88"><path
           d="m 72.113,97.312 v 2.149 c -3.66,1.422 -6.258,3.519 -6.258,7.769 v 19.926 H 85.277 V 107.23 c 0,-4.25 -2.593,-6.351 -6.254,-7.769 v -2.149 z"
           style="fill:none;stroke:#000000;stroke-width:0.420695;stroke-linecap:butt;stroke-linejoin:miter;stroke-miterlimit:4;stroke-dasharray:none;stroke-opacity:1"
           id="path86" /></g></g><g
       id="g108"
       transform="translate(259.5)"><g
         id="g94"><path
           d="M 24.543,54.496 V 92.5 h 23.98 l 0.004,30.453 h -4.859 v 4.774 h 0.422 c 0.812,-2.012 4.515,-3.004 8.824,-3.004 4.313,0 8.016,0.992 8.828,3.004 h 0.281 v -4.774 H 57.301 L 57.297,92.5 h 22.48 V 54.496 Z"
           style="fill:none;stroke:#000000;stroke-width:0.425197;stroke-linecap:round;stroke-linejoin:round;stroke-miterlimit:4;stroke-dasharray:none;stroke-opacity:1"
           id="path92" /></g><g
         id="g98"><path
           d="m 28.965,131.656 h 55.238 v 38 H 28.965 Z"
           style="fill:none;stroke:#000000;stroke-width:0.566929;stroke-linecap:round;stroke-linejoin:round;stroke-miterlimit:4;stroke-dasharray:none;stroke-opacity:1"
           id="path96" /></g><g
         id="g102"><path
           d="M 83.906,54.086 V 67.07 h 5.887 v 15.25 c -3.645,0.914 -6.539,3.711 -6.543,5.848 0.008,2.141 3.469,4.934 7.109,5.848 l 0.004,60.714 h 6.219 V 94.117 c 3.871,-0.863 7.523,-3.722 7.531,-5.949 -0.004,-2.227 -3.09,-5.086 -6.965,-5.949 V 67.07 h 5.864 V 54.086 Z"
           style="fill:none;stroke:#000000;stroke-width:0.425197;stroke-linecap:round;stroke-linejoin:round;stroke-miterlimit:4;stroke-dasharray:none;stroke-opacity:1"
           id="path100" /></g><g
         id="g106"><path
           d="m 72.113,97.312 v 2.149 c -3.66,1.422 -6.258,3.519 -6.258,7.769 v 19.926 H 85.277 V 107.23 c 0,-4.25 -2.593,-6.351 -6.254,-7.769 v -2.149 z"
           style="fill:none;stroke:#000000;stroke-width:0.420695;stroke-linecap:butt;stroke-linejoin:miter;stroke-miterlimit:4;stroke-dasharray:none;stroke-opacity:1"
           id="path104" /></g></g><g
       id="g126"
       transform="translate(343.5)"><g
         id="g112"><path
           d="M 24.543,54.496 V 92.5 h 23.98 l 0.004,30.453 h -4.859 v 4.774 h 0.422 c 0.812,-2.012 4.515,-3.004 8.824,-3.004 4.313,0 8.016,0.992 8.828,3.004 h 0.281 v -4.774 H 57.301 L 57.297,92.5 h 22.48 V 54.496 Z"
           style="fill:none;stroke:#000000;stroke-width:0.425197;stroke-linecap:round;stroke-linejoin:round;stroke-miterlimit:4;stroke-dasharray:none;stroke-opacity:1"
           id="path110" /></g><g
         id="g116"><path
           d="m 28.965,131.656 h 55.238 v 38 H 28.965 Z"
           style="fill:none;stroke:#000000;stroke-width:0.566929;stroke-linecap:round;stroke-linejoin:round;stroke-miterlimit:4;stroke-dasharray:none;stroke-opacity:1"
           id="path114" /></g><g
         id="g120"><path
           d="M 83.906,54.086 V 67.07 h 5.887 v 15.25 c -3.645,0.914 -6.539,3.711 -6.543,5.848 0.008,2.141 3.469,4.934 7.109,5.848 l 0.004,60.714 h 6.219 V 94.117 c 3.871,-0.863 7.523,-3.722 7.531,-5.949 -0.004,-2.227 -3.09,-5.086 -6.965,-5.949 V 67.07 h 5.864 V 54.086 Z"
           style="fill:none;stroke:#000000;stroke-width:0.425197;stroke-linecap:round;stroke-linejoin:round;stroke-miterlimit:4;stroke-dasharray:none;stroke-opacity:1"
           id="path118" /></g><g
         id="g124"><path
           d="m 72.113,97.312 v 2.149 c -3.66,1.422 -6.258,3.519 -6.258,7.769 v 19.926 H 85.277 V 107.23 c 0,-4.25 -2.593,-6.351 -6.254,-7.769 v -2.149 z"
           style="fill:none;stroke:#000000;stroke-width:0.420695;stroke-linecap:butt;stroke-linejoin:miter;stroke-miterlimit:4;stroke-dasharray:none;stroke-opacity:1"
           id="path122" /></g></g><g
       id="g144"
       transform="translate(430.5)"><g
         id="g130"><path
           d="M 24.543,54.496 V 92.5 h 23.98 l 0.004,30.453 h -4.859 v 4.774 h 0.422 c 0.812,-2.012 4.515,-3.004 8.824,-3.004 4.313,0 8.016,0.992 8.828,3.004 h 0.281 v -4.774 H 57.301 L 57.297,92.5 h 22.48 V 54.496 Z"
           style="fill:none;stroke:#000000;stroke-width:0.425197;stroke-linecap:round;stroke-linejoin:round;stroke-miterlimit:4;stroke-dasharray:none;stroke-opacity:1"
           id="path128" /></g><g
         id="g134"><path
           d="m 28.965,131.656 h 55.238 v 38 H 28.965 Z"
           style="fill:none;stroke:#000000;stroke-width:0.566929;stroke-linecap:round;stroke-linejoin:round;stroke-miterlimit:4;stroke-dasharray:none;stroke-opacity:1"
           id="path132" /></g><g
         id="g138"><path
           d="M 83.906,54.086 V 67.07 h 5.887 v 15.25 c -3.645,0.914 -6.539,3.711 -6.543,5.848 0.008,2.141 3.469,4.934 7.109,5.848 l 0.004,60.714 h 6.219 V 94.117 c 3.871,-0.863 7.523,-3.722 7.531,-5.949 -0.004,-2.227 -3.09,-5.086 -6.965,-5.949 V 67.07 h 5.864 V 54.086 Z"
           style="fill:none;stroke:#000000;stroke-width:0.425197;stroke-linecap:round;stroke-linejoin:round;stroke-miterlimit:4;stroke-dasharray:none;stroke-opacity:1"
           id="path136" /></g><g
         id="g142"><path
           d="m 72.113,97.312 v 2.149 c -3.66,1.422 -6.258,3.519 -6.258,7.769 v 19.926 H 85.277 V 107.23 c 0,-4.25 -2.593,-6.351 -6.254,-7.769 v -2.149 z"
           style="fill:none;stroke:#000000;stroke-width:0.420695;stroke-linecap:butt;stroke-linejoin:miter;stroke-miterlimit:4;stroke-dasharray:none;stroke-opacity:1"
           id="path140" /></g></g><g
       id="g162"
       transform="translate(0,124.5)"><g
         id="g148"><path
           d="M 24.543,54.496 V 92.5 h 23.98 l 0.004,30.453 h -4.859 v 4.774 h 0.422 c 0.812,-2.012 4.515,-3.004 8.824,-3.004 4.313,0 8.016,0.992 8.828,3.004 h 0.281 v -4.774 H 57.301 L 57.297,92.5 h 22.48 V 54.496 Z"
           style="fill:none;stroke:#000000;stroke-width:0.425197;stroke-linecap:round;stroke-linejoin:round;stroke-miterlimit:4;stroke-dasharray:none;stroke-opacity:1"
           id="path146" /></g><g
         id="g152"><path
           d="m 28.965,131.656 h 55.238 v 38 H 28.965 Z"
           style="fill:none;stroke:#000000;stroke-width:0.566929;stroke-linecap:round;stroke-linejoin:round;stroke-miterlimit:4;stroke-dasharray:none;stroke-opacity:1"
           id="path150" /></g><g
         id="g156"><path
           d="M 83.906,54.086 V 67.07 h 5.887 v 15.25 c -3.645,0.914 -6.539,3.711 -6.543,5.848 0.008,2.141 3.469,4.934 7.109,5.848 l 0.004,60.714 h 6.219 V 94.117 c 3.871,-0.863 7.523,-3.722 7.531,-5.949 -0.004,-2.227 -3.09,-5.086 -6.965,-5.949 V 67.07 h 5.864 V 54.086 Z"
           style="fill:none;stroke:#000000;stroke-width:0.425197;stroke-linecap:round;stroke-linejoin:round;stroke-miterlimit:4;stroke-dasharray:none;stroke-opacity:1"
           id="path154" /></g><g
         id="g160"><path
           d="m 72.113,97.312 v 2.149 c -3.66,1.422 -6.258,3.519 -6.258,7.769 v 19.926 H 85.277 V 107.23 c 0,-4.25 -2.593,-6.351 -6.254,-7.769 v -2.149 z"
           style="fill:none;stroke:#000000;stroke-width:0.420695;stroke-linecap:butt;stroke-linejoin:miter;stroke-miterlimit:4;stroke-dasharray:none;stroke-opacity:1"
           id="path158" /></g></g><g
       id="g180"
       transform="translate(87,124.5)"><g
         id="g166"><path
           d="M 24.543,54.496 V 92.5 h 23.98 l 0.004,30.453 h -4.859 v 4.774 h 0.422 c 0.812,-2.012 4.515,-3.004 8.824,-3.004 4.313,0 8.016,0.992 8.828,3.004 h 0.281 v -4.774 H 57.301 L 57.297,92.5 h 22.48 V 54.496 Z"
           style="fill:none;stroke:#000000;stroke-width:0.425197;stroke-linecap:round;stroke-linejoin:round;stroke-miterlimit:4;stroke-dasharray:none;stroke-opacity:1"
           id="path164" /></g><g
         id="g170"><path
           d="m 28.965,131.656 h 55.238 v 38 H 28.965 Z"
           style="fill:none;stroke:#000000;stroke-width:0.566929;stroke-linecap:round;stroke-linejoin:round;stroke-miterlimit:4;stroke-dasharray:none;stroke-opacity:1"
           id="path168" /></g><g
         id="g174"><path
           d="M 83.906,54.086 V 67.07 h 5.887 v 15.25 c -3.645,0.914 -6.539,3.711 -6.543,5.848 0.008,2.141 3.469,4.934 7.109,5.848 l 0.004,60.714 h 6.219 V 94.117 c 3.871,-0.863 7.523,-3.722 7.531,-5.949 -0.004,-2.227 -3.09,-5.086 -6.965,-5.949 V 67.07 h 5.864 V 54.086 Z"
           style="fill:none;stroke:#000000;stroke-width:0.425197;stroke-linecap:round;stroke-linejoin:round;stroke-miterlimit:4;stroke-dasharray:none;stroke-opacity:1"
           id="path172" /></g><g
         id="g178"><path
           d="m 72.113,97.312 v 2.149 c -3.66,1.422 -6.258,3.519 -6.258,7.769 v 19.926 H 85.277 V 107.23 c 0,-4.25 -2.593,-6.351 -6.254,-7.769 v -2.149 z"
           style="fill:none;stroke:#000000;stroke-width:0.420695;stroke-linecap:butt;stroke-linejoin:miter;stroke-miterlimit:4;stroke-dasharray:none;stroke-opacity:1"
           id="path176" /></g></g><g
       id="g198"
       transform="translate(172.5,124.5)"><g
         id="g184"><path
           d="M 24.543,54.496 V 92.5 h 23.98 l 0.004,30.453 h -4.859 v 4.774 h 0.422 c 0.812,-2.012 4.515,-3.004 8.824,-3.004 4.313,0 8.016,0.992 8.828,3.004 h 0.281 v -4.774 H 57.301 L 57.297,92.5 h 22.48 V 54.496 Z"
           style="fill:none;stroke:#000000;stroke-width:0.425197;stroke-linecap:round;stroke-linejoin:round;stroke-miterlimit:4;stroke-dasharray:none;stroke-opacity:1"
           id="path182" /></g><g
         id="g188"><path
           d="m 28.965,131.656 h 55.238 v 38 H 28.965 Z"
           style="fill:none;stroke:#000000;stroke-width:0.566929;stroke-linecap:round;stroke-linejoin:round;stroke-miterlimit:4;stroke-dasharray:none;stroke-opacity:1"
           id="path186" /></g><g
         id="g192"><path
           d="M 83.906,54.086 V 67.07 h 5.887 v 15.25 c -3.645,0.914 -6.539,3.711 -6.543,5.848 0.008,2.141 3.469,4.934 7.109,5.848 l 0.004,60.714 h 6.219 V 94.117 c 3.871,-0.863 7.523,-3.722 7.531,-5.949 -0.004,-2.227 -3.09,-5.086 -6.965,-5.949 V 67.07 h 5.864 V 54.086 Z"
           style="fill:none;stroke:#000000;stroke-width:0.425197;stroke-linecap:round;stroke-linejoin:round;stroke-miterlimit:4;stroke-dasharray:none;stroke-opacity:1"
           id="path190" /></g><g
         id="g196"><path
           d="m 72.113,97.312 v 2.149 c -3.66,1.422 -6.258,3.519 -6.258,7.769 v 19.926 H 85.277 V 107.23 c 0,-4.25 -2.593,-6.351 -6.254,-7.769 v -2.149 z"
           style="fill:none;stroke:#000000;stroke-width:0.420695;stroke-linecap:butt;stroke-linejoin:miter;stroke-miterlimit:4;stroke-dasharray:none;stroke-opacity:1"
           id="path194" /></g></g><g
       id="g216"
       transform="translate(259.5,124.5)"><g
         id="g202"><path
           d="M 24.543,54.496 V 92.5 h 23.98 l 0.004,30.453 h -4.859 v 4.774 h 0.422 c 0.812,-2.012 4.515,-3.004 8.824,-3.004 4.313,0 8.016,0.992 8.828,3.004 h 0.281 v -4.774 H 57.301 L 57.297,92.5 h 22.48 V 54.496 Z"
           style="fill:none;stroke:#000000;stroke-width:0.425197;stroke-linecap:round;stroke-linejoin:round;stroke-miterlimit:4;stroke-dasharray:none;stroke-opacity:1"
           id="path200" /></g><g
         id="g206"><path
           d="m 28.965,131.656 h 55.238 v 38 H 28.965 Z"
           style="fill:none;stroke:#000000;stroke-width:0.566929;stroke-linecap:round;stroke-linejoin:round;stroke-miterlimit:4;stroke-dasharray:none;stroke-opacity:1"
           id="path204" /></g><g
         id="g210"><path
           d="M 83.906,54.086 V 67.07 h 5.887 v 15.25 c -3.645,0.914 -6.539,3.711 -6.543,5.848 0.008,2.141 3.469,4.934 7.109,5.848 l 0.004,60.714 h 6.219 V 94.117 c 3.871,-0.863 7.523,-3.722 7.531,-5.949 -0.004,-2.227 -3.09,-5.086 -6.965,-5.949 V 67.07 h 5.864 V 54.086 Z"
           style="fill:none;stroke:#000000;stroke-width:0.425197;stroke-linecap:round;stroke-linejoin:round;stroke-miterlimit:4;stroke-dasharray:none;stroke-opacity:1"
           id="path208" /></g><g
         id="g214"><path
           d="m 72.113,97.312 v 2.149 c -3.66,1.422 -6.258,3.519 -6.258,7.769 v 19.926 H 85.277 V 107.23 c 0,-4.25 -2.593,-6.351 -6.254,-7.769 v -2.149 z"
           style="fill:none;stroke:#000000;stroke-width:0.420695;stroke-linecap:butt;stroke-linejoin:miter;stroke-miterlimit:4;stroke-dasharray:none;stroke-opacity:1"
           id="path212" /></g></g><g
       id="g234"
       transform="translate(343.5,124.5)"><g
         id="g220"><path
           d="M 24.543,54.496 V 92.5 h 23.98 l 0.004,30.453 h -4.859 v 4.774 h 0.422 c 0.812,-2.012 4.515,-3.004 8.824,-3.004 4.313,0 8.016,0.992 8.828,3.004 h 0.281 v -4.774 H 57.301 L 57.297,92.5 h 22.48 V 54.496 Z"
           style="fill:none;stroke:#000000;stroke-width:0.425197;stroke-linecap:round;stroke-linejoin:round;stroke-miterlimit:4;stroke-dasharray:none;stroke-opacity:1"
           id="path218" /></g><g
         id="g224"><path
           d="m 28.965,131.656 h 55.238 v 38 H 28.965 Z"
           style="fill:none;stroke:#000000;stroke-width:0.566929;stroke-linecap:round;stroke-linejoin:round;stroke-miterlimit:4;stroke-dasharray:none;stroke-opacity:1"
           id="path222" /></g><g
         id="g228"><path
           d="M 83.906,54.086 V 67.07 h 5.887 v 15.25 c -3.645,0.914 -6.539,3.711 -6.543,5.848 0.008,2.141 3.469,4.934 7.109,5.848 l 0.004,60.714 h 6.219 V 94.117 c 3.871,-0.863 7.523,-3.722 7.531,-5.949 -0.004,-2.227 -3.09,-5.086 -6.965,-5.949 V 67.07 h 5.864 V 54.086 Z"
           style="fill:none;stroke:#000000;stroke-width:0.425197;stroke-linecap:round;stroke-linejoin:round;stroke-miterlimit:4;stroke-dasharray:none;stroke-opacity:1"
           id="path226" /></g><g
         id="g232"><path
           d="m 72.113,97.312 v 2.149 c -3.66,1.422 -6.258,3.519 -6.258,7.769 v 19.926 H 85.277 V 107.23 c 0,-4.25 -2.593,-6.351 -6.254,-7.769 v -2.149 z"
           style="fill:none;stroke:#000000;stroke-width:0.420695;stroke-linecap:butt;stroke-linejoin:miter;stroke-miterlimit:4;stroke-dasharray:none;stroke-opacity:1"
           id="path230" /></g></g><g
       id="g252"
       transform="translate(430.5,124.5)"><g
         id="g238"><path
           d="M 24.543,54.496 V 92.5 h 23.98 l 0.004,30.453 h -4.859 v 4.774 h 0.422 c 0.812,-2.012 4.515,-3.004 8.824,-3.004 4.313,0 8.016,0.992 8.828,3.004 h 0.281 v -4.774 H 57.301 L 57.297,92.5 h 22.48 V 54.496 Z"
           style="fill:none;stroke:#000000;stroke-width:0.425197;stroke-linecap:round;stroke-linejoin:round;stroke-miterlimit:4;stroke-dasharray:none;stroke-opacity:1"
           id="path236" /></g><g
         id="g242"><path
           d="m 28.965,131.656 h 55.238 v 38 H 28.965 Z"
           style="fill:none;stroke:#000000;stroke-width:0.566929;stroke-linecap:round;stroke-linejoin:round;stroke-miterlimit:4;stroke-dasharray:none;stroke-opacity:1"
           id="path240" /></g><g
         id="g246"><path
           d="M 83.906,54.086 V 67.07 h 5.887 v 15.25 c -3.645,0.914 -6.539,3.711 -6.543,5.848 0.008,2.141 3.469,4.934 7.109,5.848 l 0.004,60.714 h 6.219 V 94.117 c 3.871,-0.863 7.523,-3.722 7.531,-5.949 -0.004,-2.227 -3.09,-5.086 -6.965,-5.949 V 67.07 h 5.864 V 54.086 Z"
           style="fill:none;stroke:#000000;stroke-width:0.425197;stroke-linecap:round;stroke-linejoin:round;stroke-miterlimit:4;stroke-dasharray:none;stroke-opacity:1"
           id="path244" /></g><g
         id="g250"><path
           d="m 72.113,97.312 v 2.149 c -3.66,1.422 -6.258,3.519 -6.258,7.769 v 19.926 H 85.277 V 107.23 c 0,-4.25 -2.593,-6.351 -6.254,-7.769 v -2.149 z"
           style="fill:none;stroke:#000000;stroke-width:0.420695;stroke-linecap:butt;stroke-linejoin:miter;stroke-miterlimit:4;stroke-dasharray:none;stroke-opacity:1"
           id="path248" /></g></g><g
       id="g264"
       transform="translate(-31.5,205.5)"><path
         d="m 72.113,97.312 v 2.149 c -3.66,1.422 -6.258,3.519 -6.258,7.769 v 19.926 H 85.277 V 107.23 c 0,-4.25 -2.593,-6.351 -6.254,-7.769 v -2.149 z"
         style="fill:none;stroke:#000000;stroke-width:0.420695;stroke-linecap:butt;stroke-linejoin:miter;stroke-miterlimit:4;stroke-dasharray:none;stroke-opacity:1"
         id="path262" /></g><g
       id="g268"
       transform="translate(-7.5,205.5)"><path
         d="m 72.113,97.312 v 2.149 c -3.66,1.422 -6.258,3.519 -6.258,7.769 v 19.926 H 85.277 V 107.23 c 0,-4.25 -2.593,-6.351 -6.254,-7.769 v -2.149 z"
         style="fill:none;stroke:#000000;stroke-width:0.420695;stroke-linecap:butt;stroke-linejoin:miter;stroke-miterlimit:4;stroke-dasharray:none;stroke-opacity:1"
         id="path266" /></g><g
       id="g272"
       transform="translate(15,205.5)"><path
         d="m 72.113,97.312 v 2.149 c -3.66,1.422 -6.258,3.519 -6.258,7.769 v 19.926 H 85.277 V 107.23 c 0,-4.25 -2.593,-6.351 -6.254,-7.769 v -2.149 z"
         style="fill:none;stroke:#000000;stroke-width:0.420695;stroke-linecap:butt;stroke-linejoin:miter;stroke-miterlimit:4;stroke-dasharray:none;stroke-opacity:1"
         id="path270" /></g><g
       id="g276"
       transform="translate(39,205.5)"><path
         d="m 72.113,97.312 v 2.149 c -3.66,1.422 -6.258,3.519 -6.258,7.769 v 19.926 H 85.277 V 107.23 c 0,-4.25 -2.593,-6.351 -6.254,-7.769 v -2.149 z"
         style="fill:none;stroke:#000000;stroke-width:0.420695;stroke-linecap:butt;stroke-linejoin:miter;stroke-miterlimit:4;stroke-dasharray:none;stroke-opacity:1"
         id="path274" /></g><g
       id="g280"
       transform="translate(61.5,205.5)"><path
         d="m 72.113,97.312 v 2.149 c -3.66,1.422 -6.258,3.519 -6.258,7.769 v 19.926 H 85.277 V 107.23 c 0,-4.25 -2.593,-6.351 -6.254,-7.769 v -2.149 z"
         style="fill:none;stroke:#000000;stroke-width:0.420695;stroke-linecap:butt;stroke-linejoin:miter;stroke-miterlimit:4;stroke-dasharray:none;stroke-opacity:1"
         id="path278" /></g><g
       id="g284"
       transform="translate(85.5,205.5)"><path
         d="m 72.113,97.312 v 2.149 c -3.66,1.422 -6.258,3.519 -6.258,7.769 v 19.926 H 85.277 V 107.23 c 0,-4.25 -2.593,-6.351 -6.254,-7.769 v -2.149 z"
         style="fill:none;stroke:#000000;stroke-width:0.420695;stroke-linecap:butt;stroke-linejoin:miter;stroke-miterlimit:4;stroke-dasharray:none;stroke-opacity:1"
         id="path282" /></g><g
       id="g288"
       transform="translate(108,205.5)"><path
         d="m 72.113,97.312 v 2.149 c -3.66,1.422 -6.258,3.519 -6.258,7.769 v 19.926 H 85.277 V 107.23 c 0,-4.25 -2.593,-6.351 -6.254,-7.769 v -2.149 z"
         style="fill:none;stroke:#000000;stroke-width:0.420695;stroke-linecap:butt;stroke-linejoin:miter;stroke-miterlimit:4;stroke-dasharray:none;stroke-opacity:1"
         id="path286" /></g><g
       id="g292"
       transform="translate(132,205.5)"><path
         d="m 72.113,97.312 v 2.149 c -3.66,1.422 -6.258,3.519 -6.258,7.769 v 19.926 H 85.277 V 107.23 c 0,-4.25 -2.593,-6.351 -6.254,-7.769 v -2.149 z"
         style="fill:none;stroke:#000000;stroke-width:0.420695;stroke-linecap:butt;stroke-linejoin:miter;stroke-miterlimit:4;stroke-dasharray:none;stroke-opacity:1"
         id="path290" /></g><g
       id="g296"
       transform="translate(156,205.5)"><path
         d="m 72.113,97.312 v 2.149 c -3.66,1.422 -6.258,3.519 -6.258,7.769 v 19.926 H 85.277 V 107.23 c 0,-4.25 -2.593,-6.351 -6.254,-7.769 v -2.149 z"
         style="fill:none;stroke:#000000;stroke-width:0.420695;stroke-linecap:butt;stroke-linejoin:miter;stroke-miterlimit:4;stroke-dasharray:none;stroke-opacity:1"
         id="path294" /></g><g
       id="g300"
       transform="translate(180,205.5)"><path
         d="m 72.113,97.312 v 2.149 c -3.66,1.422 -6.258,3.519 -6.258,7.769 v 19.926 H 85.277 V 107.23 c 0,-4.25 -2.593,-6.351 -6.254,-7.769 v -2.149 z"
         style="fill:none;stroke:#000000;stroke-width:0.420695;stroke-linecap:butt;stroke-linejoin:miter;stroke-miterlimit:4;stroke-dasharray:none;stroke-opacity:1"
         id="path298" /></g><g
       id="g304"
       transform="translate(202.5,205.5)"><path
         d="m 72.113,97.312 v 2.149 c -3.66,1.422 -6.258,3.519 -6.258,7.769 v 19.926 H 85.277 V 107.23 c 0,-4.25 -2.593,-6.351 -6.254,-7.769 v -2.149 z"
         style="fill:none;stroke:#000000;stroke-width:0.420695;stroke-linecap:butt;stroke-linejoin:miter;stroke-miterlimit:4;stroke-dasharray:none;stroke-opacity:1"
         id="path302" /></g><g
       id="g308"
       transform="translate(226.5,205.5)"><path
         d="m 72.113,97.312 v 2.149 c -3.66,1.422 -6.258,3.519 -6.258,7.769 v 19.926 H 85.277 V 107.23 c 0,-4.25 -2.593,-6.351 -6.254,-7.769 v -2.149 z"
         style="fill:none;stroke:#000000;stroke-width:0.420695;stroke-linecap:butt;stroke-linejoin:miter;stroke-miterlimit:4;stroke-dasharray:none;stroke-opacity:1"
         id="path306" /></g><g
       id="g312"
       transform="translate(249,205.5)"><path
         d="m 72.113,97.312 v 2.149 c -3.66,1.422 -6.258,3.519 -6.258,7.769 v 19.926 H 85.277 V 107.23 c 0,-4.25 -2.593,-6.351 -6.254,-7.769 v -2.149 z"
         style="fill:none;stroke:#000000;stroke-width:0.420695;stroke-linecap:butt;stroke-linejoin:miter;stroke-miterlimit:4;stroke-dasharray:none;stroke-opacity:1"
         id="path310" /></g><g
       id="g316"
       transform="translate(273,205.5)"><path
         d="m 72.113,97.312 v 2.149 c -3.66,1.422 -6.258,3.519 -6.258,7.769 v 19.926 H 85.277 V 107.23 c 0,-4.25 -2.593,-6.351 -6.254,-7.769 v -2.149 z"
         style="fill:none;stroke:#000000;stroke-width:0.420695;stroke-linecap:butt;stroke-linejoin:miter;stroke-miterlimit:4;stroke-dasharray:none;stroke-opacity:1"
         id="path314" /></g><g
       id="g320"
       transform="translate(295.5,205.5)"><path
         d="m 72.113,97.312 v 2.149 c -3.66,1.422 -6.258,3.519 -6.258,7.769 v 19.926 H 85.277 V 107.23 c 0,-4.25 -2.593,-6.351 -6.254,-7.769 v -2.149 z"
         style="fill:none;stroke:#000000;stroke-width:0.420695;stroke-linecap:butt;stroke-linejoin:miter;stroke-miterlimit:4;stroke-dasharray:none;stroke-opacity:1"
         id="path318" /></g><g
       id="g324"
       transform="translate(319.5,205.5)"><path
         d="m 72.113,97.312 v 2.149 c -3.66,1.422 -6.258,3.519 -6.258,7.769 v 19.926 H 85.277 V 107.23 c 0,-4.25 -2.593,-6.351 -6.254,-7.769 v -2.149 z"
         style="fill:none;stroke:#000000;stroke-width:0.420695;stroke-linecap:butt;stroke-linejoin:miter;stroke-miterlimit:4;stroke-dasharray:none;stroke-opacity:1"
         id="path322" /></g><g
       id="g328"
       transform="translate(343.5,205.5)"><path
         d="m 72.113,97.312 v 2.149 c -3.66,1.422 -6.258,3.519 -6.258,7.769 v 19.926 H 85.277 V 107.23 c 0,-4.25 -2.593,-6.351 -6.254,-7.769 v -2.149 z"
         style="fill:none;stroke:#000000;stroke-width:0.420695;stroke-linecap:butt;stroke-linejoin:miter;stroke-miterlimit:4;stroke-dasharray:none;stroke-opacity:1"
         id="path326" /></g><g
       id="g332"
       transform="translate(366,205.5)"><path
         d="m 72.113,97.312 v 2.149 c -3.66,1.422 -6.258,3.519 -6.258,7.769 v 19.926 H 85.277 V 107.23 c 0,-4.25 -2.593,-6.351 -6.254,-7.769 v -2.149 z"
         style="fill:none;stroke:#000000;stroke-width:0.420695;stroke-linecap:butt;stroke-linejoin:miter;stroke-miterlimit:4;stroke-dasharray:none;stroke-opacity:1"
         id="path330" /></g><g
       id="g336"
       transform="translate(390,205.5)"><path
         d="m 72.113,97.312 v 2.149 c -3.66,1.422 -6.258,3.519 -6.258,7.769 v 19.926 H 85.277 V 107.23 c 0,-4.25 -2.593,-6.351 -6.254,-7.769 v -2.149 z"
         style="fill:none;stroke:#000000;stroke-width:0.420695;stroke-linecap:butt;stroke-linejoin:miter;stroke-miterlimit:4;stroke-dasharray:none;stroke-opacity:1"
         id="path334" /></g><g
       id="g340"
       transform="translate(412.5,205.5)"><path
         d="m 72.113,97.312 v 2.149 c -3.66,1.422 -6.258,3.519 -6.258,7.769 v 19.926 H 85.277 V 107.23 c 0,-4.25 -2.593,-6.351 -6.254,-7.769 v -2.149 z"
         style="fill:none;stroke:#000000;stroke-width:0.420695;stroke-linecap:butt;stroke-linejoin:miter;stroke-miterlimit:4;stroke-dasharray:none;stroke-opacity:1"
         id="path338" /></g><g
       id="g344"
       transform="translate(436.5,205.5)"><path
         d="m 72.113,97.312 v 2.149 c -3.66,1.422 -6.258,3.519 -6.258,7.769 v 19.926 H 85.277 V 107.23 c 0,-4.25 -2.593,-6.351 -6.254,-7.769 v -2.149 z"
         style="fill:none;stroke:#000000;stroke-width:0.420695;stroke-linecap:butt;stroke-linejoin:miter;stroke-miterlimit:4;stroke-dasharray:none;stroke-opacity:1"
         id="path342" /></g><g
       id="g348"
       transform="translate(-31.5,238.5)"><path
         d="m 72.113,97.312 v 2.149 c -3.66,1.422 -6.258,3.519 -6.258,7.769 v 19.926 H 85.277 V 107.23 c 0,-4.25 -2.593,-6.351 -6.254,-7.769 v -2.149 z"
         style="fill:none;stroke:#000000;stroke-width:0.420695;stroke-linecap:butt;stroke-linejoin:miter;stroke-miterlimit:4;stroke-dasharray:none;stroke-opacity:1"
         id="path346" /></g><g
       id="g352"
       transform="translate(-7.5,238.5)"><path
         d="m 72.113,97.312 v 2.149 c -3.66,1.422 -6.258,3.519 -6.258,7.769 v 19.926 H 85.277 V 107.23 c 0,-4.25 -2.593,-6.351 -6.254,-7.769 v -2.149 z"
         style="fill:none;stroke:#000000;stroke-width:0.420695;stroke-linecap:butt;stroke-linejoin:miter;stroke-miterlimit:4;stroke-dasharray:none;stroke-opacity:1"
         id="path350" /></g><g
       id="g356"
       transform="translate(15,238.5)"><path
         d="m 72.113,97.312 v 2.149 c -3.66,1.422 -6.258,3.519 -6.258,7.769 v 19.926 H 85.277 V 107.23 c 0,-4.25 -2.593,-6.351 -6.254,-7.769 v -2.149 z"
         style="fill:none;stroke:#000000;stroke-width:0.420695;stroke-linecap:butt;stroke-linejoin:miter;stroke-miterlimit:4;stroke-dasharray:none;stroke-opacity:1"
         id="path354" /></g><g
       id="g360"
       transform="translate(39,238.5)"><path
         d="m 72.113,97.312 v 2.149 c -3.66,1.422 -6.258,3.519 -6.258,7.769 v 19.926 H 85.277 V 107.23 c 0,-4.25 -2.593,-6.351 -6.254,-7.769 v -2.149 z"
         style="fill:none;stroke:#000000;stroke-width:0.420695;stroke-linecap:butt;stroke-linejoin:miter;stroke-miterlimit:4;stroke-dasharray:none;stroke-opacity:1"
         id="path358" /></g><g
       id="g364"
       transform="translate(61.5,238.5)"><path
         d="m 72.113,97.312 v 2.149 c -3.66,1.422 -6.258,3.519 -6.258,7.769 v 19.926 H 85.277 V 107.23 c 0,-4.25 -2.593,-6.351 -6.254,-7.769 v -2.149 z"
         style="fill:none;stroke:#000000;stroke-width:0.420695;stroke-linecap:butt;stroke-linejoin:miter;stroke-miterlimit:4;stroke-dasharray:none;stroke-opacity:1"
         id="path362" /></g><g
       id="g368"
       transform="translate(85.5,238.5)"><path
         d="m 72.113,97.312 v 2.149 c -3.66,1.422 -6.258,3.519 -6.258,7.769 v 19.926 H 85.277 V 107.23 c 0,-4.25 -2.593,-6.351 -6.254,-7.769 v -2.149 z"
         style="fill:none;stroke:#000000;stroke-width:0.420695;stroke-linecap:butt;stroke-linejoin:miter;stroke-miterlimit:4;stroke-dasharray:none;stroke-opacity:1"
         id="path366" /></g><g
       id="g372"
       transform="translate(108,238.5)"><path
         d="m 72.113,97.312 v 2.149 c -3.66,1.422 -6.258,3.519 -6.258,7.769 v 19.926 H 85.277 V 107.23 c 0,-4.25 -2.593,-6.351 -6.254,-7.769 v -2.149 z"
         style="fill:none;stroke:#000000;stroke-width:0.420695;stroke-linecap:butt;stroke-linejoin:miter;stroke-miterlimit:4;stroke-dasharray:none;stroke-opacity:1"
         id="path370" /></g><g
       id="g376"
       transform="translate(132,238.5)"><path
         d="m 72.113,97.312 v 2.149 c -3.66,1.422 -6.258,3.519 -6.258,7.769 v 19.926 H 85.277 V 107.23 c 0,-4.25 -2.593,-6.351 -6.254,-7.769 v -2.149 z"
         style="fill:none;stroke:#000000;stroke-width:0.420695;stroke-linecap:butt;stroke-linejoin:miter;stroke-miterlimit:4;stroke-dasharray:none;stroke-opacity:1"
         id="path374" /></g><g
       id="g380"
       transform="translate(156,238.5)"><path
         d="m 72.113,97.312 v 2.149 c -3.66,1.422 -6.258,3.519 -6.258,7.769 v 19.926 H 85.277 V 107.23 c 0,-4.25 -2.593,-6.351 -6.254,-7.769 v -2.149 z"
         style="fill:none;stroke:#000000;stroke-width:0.420695;stroke-linecap:butt;stroke-linejoin:miter;stroke-miterlimit:4;stroke-dasharray:none;stroke-opacity:1"
         id="path378" /></g><g
       id="g384"
       transform="translate(180,238.5)"><path
         d="m 72.113,97.312 v 2.149 c -3.66,1.422 -6.258,3.519 -6.258,7.769 v 19.926 H 85.277 V 107.23 c 0,-4.25 -2.593,-6.351 -6.254,-7.769 v -2.149 z"
         style="fill:none;stroke:#000000;stroke-width:0.420695;stroke-linecap:butt;stroke-linejoin:miter;stroke-miterlimit:4;stroke-dasharray:none;stroke-opacity:1"
         id="path382" /></g><g
       id="g388"
       transform="translate(202.5,238.5)"><path
         d="m 72.113,97.312 v 2.149 c -3.66,1.422 -6.258,3.519 -6.258,7.769 v 19.926 H 85.277 V 107.23 c 0,-4.25 -2.593,-6.351 -6.254,-7.769 v -2.149 z"
         style="fill:none;stroke:#000000;stroke-width:0.420695;stroke-linecap:butt;stroke-linejoin:miter;stroke-miterlimit:4;stroke-dasharray:none;stroke-opacity:1"
         id="path386" /></g><g
       id="g392"
       transform="translate(226.5,238.5)"><path
         d="m 72.113,97.312 v 2.149 c -3.66,1.422 -6.258,3.519 -6.258,7.769 v 19.926 H 85.277 V 107.23 c 0,-4.25 -2.593,-6.351 -6.254,-7.769 v -2.149 z"
         style="fill:none;stroke:#000000;stroke-width:0.420695;stroke-linecap:butt;stroke-linejoin:miter;stroke-miterlimit:4;stroke-dasharray:none;stroke-opacity:1"
         id="path390" /></g><g
       id="g396"
       transform="translate(249,238.5)"><path
         d="m 72.113,97.312 v 2.149 c -3.66,1.422 -6.258,3.519 -6.258,7.769 v 19.926 H 85.277 V 107.23 c 0,-4.25 -2.593,-6.351 -6.254,-7.769 v -2.149 z"
         style="fill:none;stroke:#000000;stroke-width:0.420695;stroke-linecap:butt;stroke-linejoin:miter;stroke-miterlimit:4;stroke-dasharray:none;stroke-opacity:1"
         id="path394" /></g><g
       id="g400"
       transform="translate(273,238.5)"><path
         d="m 72.113,97.312 v 2.149 c -3.66,1.422 -6.258,3.519 -6.258,7.769 v 19.926 H 85.277 V 107.23 c 0,-4.25 -2.593,-6.351 -6.254,-7.769 v -2.149 z"
         style="fill:none;stroke:#000000;stroke-width:0.420695;stroke-linecap:butt;stroke-linejoin:miter;stroke-miterlimit:4;stroke-dasharray:none;stroke-opacity:1"
         id="path398" /></g><g
       id="g404"
       transform="translate(295.5,238.5)"><path
         d="m 72.113,97.312 v 2.149 c -3.66,1.422 -6.258,3.519 -6.258,7.769 v 19.926 H 85.277 V 107.23 c 0,-4.25 -2.593,-6.351 -6.254,-7.769 v -2.149 z"
         style="fill:none;stroke:#000000;stroke-width:0.420695;stroke-linecap:butt;stroke-linejoin:miter;stroke-miterlimit:4;stroke-dasharray:none;stroke-opacity:1"
         id="path402" /></g><g
       id="g408"
       transform="translate(319.5,238.5)"><path
         d="m 72.113,97.312 v 2.149 c -3.66,1.422 -6.258,3.519 -6.258,7.769 v 19.926 H 85.277 V 107.23 c 0,-4.25 -2.593,-6.351 -6.254,-7.769 v -2.149 z"
         style="fill:none;stroke:#000000;stroke-width:0.420695;stroke-linecap:butt;stroke-linejoin:miter;stroke-miterlimit:4;stroke-dasharray:none;stroke-opacity:1"
         id="path406" /></g><g
       id="g412"
       transform="translate(343.5,238.5)"><path
         d="m 72.113,97.312 v 2.149 c -3.66,1.422 -6.258,3.519 -6.258,7.769 v 19.926 H 85.277 V 107.23 c 0,-4.25 -2.593,-6.351 -6.254,-7.769 v -2.149 z"
         style="fill:none;stroke:#000000;stroke-width:0.420695;stroke-linecap:butt;stroke-linejoin:miter;stroke-miterlimit:4;stroke-dasharray:none;stroke-opacity:1"
         id="path410" /></g><g
       id="g416"
       transform="translate(366,238.5)"><path
         d="m 72.113,97.312 v 2.149 c -3.66,1.422 -6.258,3.519 -6.258,7.769 v 19.926 H 85.277 V 107.23 c 0,-4.25 -2.593,-6.351 -6.254,-7.769 v -2.149 z"
         style="fill:none;stroke:#000000;stroke-width:0.420695;stroke-linecap:butt;stroke-linejoin:miter;stroke-miterlimit:4;stroke-dasharray:none;stroke-opacity:1"
         id="path414" /></g><g
       id="g420"
       transform="translate(390,238.5)"><path
         d="m 72.113,97.312 v 2.149 c -3.66,1.422 -6.258,3.519 -6.258,7.769 v 19.926 H 85.277 V 107.23 c 0,-4.25 -2.593,-6.351 -6.254,-7.769 v -2.149 z"
         style="fill:none;stroke:#000000;stroke-width:0.420695;stroke-linecap:butt;stroke-linejoin:miter;stroke-miterlimit:4;stroke-dasharray:none;stroke-opacity:1"
         id="path418" /></g><g
       id="g424"
       transform="translate(412.5,238.5)"><path
         d="m 72.113,97.312 v 2.149 c -3.66,1.422 -6.258,3.519 -6.258,7.769 v 19.926 H 85.277 V 107.23 c 0,-4.25 -2.593,-6.351 -6.254,-7.769 v -2.149 z"
         style="fill:none;stroke:#000000;stroke-width:0.420695;stroke-linecap:butt;stroke-linejoin:miter;stroke-miterlimit:4;stroke-dasharray:none;stroke-opacity:1"
         id="path422" /></g><g
       id="g428"
       transform="translate(436.5,238.5)"><path
         d="m 72.113,97.312 v 2.149 c -3.66,1.422 -6.258,3.519 -6.258,7.769 v 19.926 H 85.277 V 107.23 c 0,-4.25 -2.593,-6.351 -6.254,-7.769 v -2.149 z"
         style="fill:none;stroke:#000000;stroke-width:0.420695;stroke-linecap:butt;stroke-linejoin:miter;stroke-miterlimit:4;stroke-dasharray:none;stroke-opacity:1"
         id="path426" /></g><g
       id="g638"
       transform="translate(-31.5,273)"><path
         d="m 72.113,97.312 v 2.149 c -3.66,1.422 -6.258,3.519 -6.258,7.769 v 19.926 H 85.277 V 107.23 c 0,-4.25 -2.593,-6.351 -6.254,-7.769 v -2.149 z"
         style="fill:none;stroke:#000000;stroke-width:0.420695;stroke-linecap:butt;stroke-linejoin:miter;stroke-miterlimit:4;stroke-dasharray:none;stroke-opacity:1"
         id="path636" /></g><g
       id="g642"
       transform="translate(-7.5,273)"><path
         d="m 72.113,97.312 v 2.149 c -3.66,1.422 -6.258,3.519 -6.258,7.769 v 19.926 H 85.277 V 107.23 c 0,-4.25 -2.593,-6.351 -6.254,-7.769 v -2.149 z"
         style="fill:none;stroke:#000000;stroke-width:0.420695;stroke-linecap:butt;stroke-linejoin:miter;stroke-miterlimit:4;stroke-dasharray:none;stroke-opacity:1"
         id="path640" /></g><g
       id="g646"
       transform="translate(15,273)"><path
         d="m 72.113,97.312 v 2.149 c -3.66,1.422 -6.258,3.519 -6.258,7.769 v 19.926 H 85.277 V 107.23 c 0,-4.25 -2.593,-6.351 -6.254,-7.769 v -2.149 z"
         style="fill:none;stroke:#000000;stroke-width:0.420695;stroke-linecap:butt;stroke-linejoin:miter;stroke-miterlimit:4;stroke-dasharray:none;stroke-opacity:1"
         id="path644" /></g><g
       id="g650"
       transform="translate(39,273)"><path
         d="m 72.113,97.312 v 2.149 c -3.66,1.422 -6.258,3.519 -6.258,7.769 v 19.926 H 85.277 V 107.23 c 0,-4.25 -2.593,-6.351 -6.254,-7.769 v -2.149 z"
         style="fill:none;stroke:#000000;stroke-width:0.420695;stroke-linecap:butt;stroke-linejoin:miter;stroke-miterlimit:4;stroke-dasharray:none;stroke-opacity:1"
         id="path648" /></g><g
       id="g654"
       transform="translate(61.5,273)"><path
         d="m 72.113,97.312 v 2.149 c -3.66,1.422 -6.258,3.519 -6.258,7.769 v 19.926 H 85.277 V 107.23 c 0,-4.25 -2.593,-6.351 -6.254,-7.769 v -2.149 z"
         style="fill:none;stroke:#000000;stroke-width:0.420695;stroke-linecap:butt;stroke-linejoin:miter;stroke-miterlimit:4;stroke-dasharray:none;stroke-opacity:1"
         id="path652" /></g><g
       id="g658"
       transform="translate(85.5,273)"><path
         d="m 72.113,97.312 v 2.149 c -3.66,1.422 -6.258,3.519 -6.258,7.769 v 19.926 H 85.277 V 107.23 c 0,-4.25 -2.593,-6.351 -6.254,-7.769 v -2.149 z"
         style="fill:none;stroke:#000000;stroke-width:0.420695;stroke-linecap:butt;stroke-linejoin:miter;stroke-miterlimit:4;stroke-dasharray:none;stroke-opacity:1"
         id="path656" /></g><g
       id="g662"
       transform="translate(108,273)"><path
         d="m 72.113,97.312 v 2.149 c -3.66,1.422 -6.258,3.519 -6.258,7.769 v 19.926 H 85.277 V 107.23 c 0,-4.25 -2.593,-6.351 -6.254,-7.769 v -2.149 z"
         style="fill:none;stroke:#000000;stroke-width:0.420695;stroke-linecap:butt;stroke-linejoin:miter;stroke-miterlimit:4;stroke-dasharray:none;stroke-opacity:1"
         id="path660" /></g><g
       id="g666"
       transform="translate(132,273)"><path
         d="m 72.113,97.312 v 2.149 c -3.66,1.422 -6.258,3.519 -6.258,7.769 v 19.926 H 85.277 V 107.23 c 0,-4.25 -2.593,-6.351 -6.254,-7.769 v -2.149 z"
         style="fill:none;stroke:#000000;stroke-width:0.420695;stroke-linecap:butt;stroke-linejoin:miter;stroke-miterlimit:4;stroke-dasharray:none;stroke-opacity:1"
         id="path664" /></g><g
       id="g670"
       transform="translate(156,273)"><path
         d="m 72.113,97.312 v 2.149 c -3.66,1.422 -6.258,3.519 -6.258,7.769 v 19.926 H 85.277 V 107.23 c 0,-4.25 -2.593,-6.351 -6.254,-7.769 v -2.149 z"
         style="fill:none;stroke:#000000;stroke-width:0.420695;stroke-linecap:butt;stroke-linejoin:miter;stroke-miterlimit:4;stroke-dasharray:none;stroke-opacity:1"
         id="path668" /></g><g
       id="g674"
       transform="translate(180,273)"><path
         d="m 72.113,97.312 v 2.149 c -3.66,1.422 -6.258,3.519 -6.258,7.769 v 19.926 H 85.277 V 107.23 c 0,-4.25 -2.593,-6.351 -6.254,-7.769 v -2.149 z"
         style="fill:none;stroke:#000000;stroke-width:0.420695;stroke-linecap:butt;stroke-linejoin:miter;stroke-miterlimit:4;stroke-dasharray:none;stroke-opacity:1"
         id="path672" /></g><g
       id="g678"
       transform="translate(202.5,273)"><path
         d="m 72.113,97.312 v 2.149 c -3.66,1.422 -6.258,3.519 -6.258,7.769 v 19.926 H 85.277 V 107.23 c 0,-4.25 -2.593,-6.351 -6.254,-7.769 v -2.149 z"
         style="fill:none;stroke:#000000;stroke-width:0.420695;stroke-linecap:butt;stroke-linejoin:miter;stroke-miterlimit:4;stroke-dasharray:none;stroke-opacity:1"
         id="path676" /></g><g
       id="g682"
       transform="translate(226.5,273)"><path
         d="m 72.113,97.312 v 2.149 c -3.66,1.422 -6.258,3.519 -6.258,7.769 v 19.926 H 85.277 V 107.23 c 0,-4.25 -2.593,-6.351 -6.254,-7.769 v -2.149 z"
         style="fill:none;stroke:#000000;stroke-width:0.420695;stroke-linecap:butt;stroke-linejoin:miter;stroke-miterlimit:4;stroke-dasharray:none;stroke-opacity:1"
         id="path680" /></g><g
       id="g686"
       transform="translate(249,273)"><path
         d="m 72.113,97.312 v 2.149 c -3.66,1.422 -6.258,3.519 -6.258,7.769 v 19.926 H 85.277 V 107.23 c 0,-4.25 -2.593,-6.351 -6.254,-7.769 v -2.149 z"
         style="fill:none;stroke:#000000;stroke-width:0.420695;stroke-linecap:butt;stroke-linejoin:miter;stroke-miterlimit:4;stroke-dasharray:none;stroke-opacity:1"
         id="path684" /></g><g
       id="g690"
       transform="translate(273,273)"><path
         d="m 72.113,97.312 v 2.149 c -3.66,1.422 -6.258,3.519 -6.258,7.769 v 19.926 H 85.277 V 107.23 c 0,-4.25 -2.593,-6.351 -6.254,-7.769 v -2.149 z"
         style="fill:none;stroke:#000000;stroke-width:0.420695;stroke-linecap:butt;stroke-linejoin:miter;stroke-miterlimit:4;stroke-dasharray:none;stroke-opacity:1"
         id="path688" /></g><g
       id="g694"
       transform="translate(295.5,273)"><path
         d="m 72.113,97.312 v 2.149 c -3.66,1.422 -6.258,3.519 -6.258,7.769 v 19.926 H 85.277 V 107.23 c 0,-4.25 -2.593,-6.351 -6.254,-7.769 v -2.149 z"
         style="fill:none;stroke:#000000;stroke-width:0.420695;stroke-linecap:butt;stroke-linejoin:miter;stroke-miterlimit:4;stroke-dasharray:none;stroke-opacity:1"
         id="path692" /></g><g
       id="g698"
       transform="translate(319.5,273)"><path
         d="m 72.113,97.312 v 2.149 c -3.66,1.422 -6.258,3.519 -6.258,7.769 v 19.926 H 85.277 V 107.23 c 0,-4.25 -2.593,-6.351 -6.254,-7.769 v -2.149 z"
         style="fill:none;stroke:#000000;stroke-width:0.420695;stroke-linecap:butt;stroke-linejoin:miter;stroke-miterlimit:4;stroke-dasharray:none;stroke-opacity:1"
         id="path696" /></g><g
       id="g702"
       transform="translate(343.5,273)"><path
         d="m 72.113,97.312 v 2.149 c -3.66,1.422 -6.258,3.519 -6.258,7.769 v 19.926 H 85.277 V 107.23 c 0,-4.25 -2.593,-6.351 -6.254,-7.769 v -2.149 z"
         style="fill:none;stroke:#000000;stroke-width:0.420695;stroke-linecap:butt;stroke-linejoin:miter;stroke-miterlimit:4;stroke-dasharray:none;stroke-opacity:1"
         id="path700" /></g><g
       id="g706"
       transform="translate(366,273)"><path
         d="m 72.113,97.312 v 2.149 c -3.66,1.422 -6.258,3.519 -6.258,7.769 v 19.926 H 85.277 V 107.23 c 0,-4.25 -2.593,-6.351 -6.254,-7.769 v -2.149 z"
         style="fill:none;stroke:#000000;stroke-width:0.420695;stroke-linecap:butt;stroke-linejoin:miter;stroke-miterlimit:4;stroke-dasharray:none;stroke-opacity:1"
         id="path704" /></g><g
       id="g710"
       transform="translate(390,273)"><path
         d="m 72.113,97.312 v 2.149 c -3.66,1.422 -6.258,3.519 -6.258,7.769 v 19.926 H 85.277 V 107.23 c 0,-4.25 -2.593,-6.351 -6.254,-7.769 v -2.149 z"
         style="fill:none;stroke:#000000;stroke-width:0.420695;stroke-linecap:butt;stroke-linejoin:miter;stroke-miterlimit:4;stroke-dasharray:none;stroke-opacity:1"
         id="path708" /></g><g
       id="g714"
       transform="translate(412.5,273)"><path
         d="m 72.113,97.312 v 2.149 c -3.66,1.422 -6.258,3.519 -6.258,7.769 v 19.926 H 85.277 V 107.23 c 0,-4.25 -2.593,-6.351 -6.254,-7.769 v -2.149 z"
         style="fill:none;stroke:#000000;stroke-width:0.420695;stroke-linecap:butt;stroke-linejoin:miter;stroke-miterlimit:4;stroke-dasharray:none;stroke-opacity:1"
         id="path712" /></g><g
       id="g718"
       transform="translate(436.5,273)"><path
         d="m 72.113,97.312 v 2.149 c -3.66,1.422 -6.258,3.519 -6.258,7.769 v 19.926 H 85.277 V 107.23 c 0,-4.25 -2.593,-6.351 -6.254,-7.769 v -2.149 z"
         style="fill:none;stroke:#000000;stroke-width:0.420695;stroke-linecap:butt;stroke-linejoin:miter;stroke-miterlimit:4;stroke-dasharray:none;stroke-opacity:1"
         id="path716" /></g></g></svg>
